<?xml version='1.0' encoding='utf-8'?>
<svg xmlns="http://www.w3.org/2000/svg" id="Layer_1" data-name="Layer 1" viewBox="0 0 265.16 265.16"><defs><style>.cls-1,.cls-3{fill:#fff;}.cls-2,.cls-5{fill:none;}.cls-3,.cls-5,.cls-6,.cls-7{stroke:#1d1d1b;stroke-miterlimit:10;}.cls-3{stroke-width:0.99px;}.cls-4,.cls-6{fill:#010101;}.cls-4{opacity:1;}.cls-5,.cls-6,.cls-7{stroke-width:0.5px;}</style></defs><path class="cls-1" d="M237.8,12.63H27.36A14.75,14.75,0,0,0,12.63,27.36V237.8a14.75,14.75,0,0,0,14.73,14.73H237.8a14.75,14.75,0,0,0,14.73-14.73V27.36A14.75,14.75,0,0,0,237.8,12.63Z"/><path d="M237.8,0H27.36A27.39,27.39,0,0,0,0,27.36V237.8a27.39,27.39,0,0,0,27.36,27.36H237.8a27.39,27.39,0,0,0,27.36-27.36V27.36A27.39,27.39,0,0,0,237.8,0Zm14.73,237.8a14.75,14.75,0,0,1-14.73,14.73H27.36A14.75,14.75,0,0,1,12.63,237.8V27.36A14.75,14.75,0,0,1,27.36,12.63H237.8a14.75,14.75,0,0,1,14.73,14.73Z"/><path class="cls-2" d="M17.21,48.54a25.13,25.13,0,0,1,7,1.11,13.47,13.47,0,0,1,8.05,3.82l.8.8A25.1,25.1,0,0,1,37,58.16L141.6,162.78a13.65,13.65,0,0,1,0,19.23l-10.22,10.22a13.63,13.63,0,0,1-19.23,0L42.7,122.78V236H12.63v5.93H149.31V48.54Z"/><path d="M42.7,232.11V122.78l69.45,69.45a13.63,13.63,0,0,0,19.23,0L141.6,182a13.65,13.65,0,0,0,0-19.23L37,58.16a25.1,25.1,0,0,0-3.89-3.89l-.8-.8a13.47,13.47,0,0,0-8-3.82,25.13,25.13,0,0,0-7-1.11H12.63V236H42.7Z"/><polygon class="cls-1" points="133.41 98.59 133.02 98.77 132.62 98.96 127.58 88.2 128.38 87.83 133.41 98.59"/><polygon class="cls-1" points="138.7 96.11 138.3 96.3 137.9 96.49 132.87 85.73 133.66 85.36 138.7 96.11"/><polygon class="cls-1" points="143.98 93.64 143.58 93.83 143.19 94.01 138.15 83.25 138.95 82.88 143.98 93.64"/><polygon class="cls-1" points="149.26 91.17 148.87 91.35 148.47 91.54 143.44 80.78 144.23 80.41 149.26 91.17"/><polygon class="cls-1" points="154.55 88.7 154.15 88.88 153.76 89.07 148.72 78.31 149.51 77.94 154.55 88.7"/><polygon class="cls-1" points="159.83 86.22 159.44 86.41 159.04 86.59 154 75.84 154.8 75.46 159.83 86.22"/><polygon class="cls-1" points="165.12 83.75 164.72 83.93 164.32 84.12 159.29 73.36 160.08 72.99 165.12 83.75"/><polygon class="cls-1" points="170.4 81.28 170 81.46 169.61 81.65 164.57 70.89 165.37 70.52 170.4 81.28"/><polygon class="cls-1" points="175.69 78.8 175.29 78.99 174.89 79.17 169.86 68.42 170.65 68.04 175.69 78.8"/><polygon class="cls-1" points="180.97 76.33 180.57 76.51 180.18 76.7 175.14 65.94 175.93 65.57 180.97 76.33"/><polygon class="cls-1" points="186.25 73.86 185.86 74.04 185.46 74.23 180.43 63.47 181.22 63.1 186.25 73.86"/><polygon class="cls-1" points="191.54 71.38 191.14 71.57 190.74 71.75 185.71 61 186.5 60.63 191.54 71.38"/><polygon class="cls-1" points="196.82 68.91 196.43 69.1 196.03 69.28 190.99 58.52 191.79 58.15 196.82 68.91"/><polygon class="cls-1" points="135.83 97.46 135.43 97.64 135.04 97.83 132.52 92.45 133.31 92.08 135.83 97.46"/><polygon class="cls-1" points="141.18 94.95 140.78 95.14 140.39 95.32 137.87 89.95 138.66 89.57 141.18 94.95"/><polygon class="cls-1" points="146.53 92.45 146.13 92.63 145.73 92.82 143.22 87.44 144.01 87.07 146.53 92.45"/><polygon class="cls-1" points="151.88 89.95 151.48 90.13 151.08 90.32 148.57 84.94 149.36 84.57 151.88 89.95"/><polygon class="cls-1" points="157.23 87.44 156.83 87.63 156.43 87.81 153.92 82.43 154.71 82.06 157.23 87.44"/><polygon class="cls-1" points="162.58 84.94 162.18 85.12 161.78 85.31 159.27 79.93 160.06 79.56 162.58 84.94"/><polygon class="cls-1" points="167.92 82.43 167.53 82.62 167.13 82.81 164.61 77.43 165.41 77.06 167.92 82.43"/><polygon class="cls-1" points="173.27 79.93 172.88 80.12 172.48 80.3 169.96 74.92 170.76 74.55 173.27 79.93"/><polygon class="cls-1" points="178.62 77.43 178.23 77.61 177.83 77.8 175.31 72.42 176.11 72.05 178.62 77.43"/><polygon class="cls-1" points="183.97 74.92 183.58 75.11 183.18 75.29 180.66 69.92 181.46 69.54 183.97 74.92"/><polygon class="cls-1" points="189.32 72.42 188.93 72.61 188.53 72.79 186.01 67.41 186.8 67.04 189.32 72.42"/><polygon class="cls-1" points="194.67 69.92 194.27 70.1 193.88 70.29 191.36 64.91 192.15 64.54 194.67 69.92"/><path d="M227.16,64.47,209.55,27.39a1.32,1.32,0,1,0-2.39,1.14l4.11,8.65-1.62.82c-1.56.79-3.11,1.57-4.67,2.33-.64.3-1.29.56-1.93.82-.47.18-.94.37-1.4.57-1,.41-1.89.85-2.83,1.29l-.63.29-2.6-5.8a1.33,1.33,0,0,0-1.59-.72l-.33.1a1.33,1.33,0,0,0-.82,1.82l2.37,5.13L121.65,78.25c-.8.38-.81.78-.07,2.84.23.63.45,1.26.69,1.89.31.88.64,1.79,1,2.66a6.43,6.43,0,0,1,.22.89c-.1-.2-.19-.39-.28-.59s-.32-.68-.5-1a2.42,2.42,0,0,0-.73-.86c-.1-.06-.22-.11-.3,0a1.08,1.08,0,0,0,0,.75c.1.36.09.52-.23.67l-5.17,4.78-1.1,1a15.08,15.08,0,0,0,.18,1.55.31.31,0,0,1,0,.23,6.08,6.08,0,0,1-1.2.79l-20.89,9.79-.1,0a.48.48,0,0,0-.32.21,1.83,1.83,0,0,0-.17.53c0,.06,0,.13,0,.19l-.1.38.38.55.12.19.28.43,6.08-2.84,16.79-7.87c.25-.12.37-.07.6.24a6.08,6.08,0,0,0,.64.72c.13.13.26.26.37.39l1.62-.21,6.84-.91c.29-.12.4-.08.6.2a1.76,1.76,0,0,0,.47.44l.09,0,.31-.32c0-.06,0-.1,0-.16a3.09,3.09,0,0,0-.21-.86c-.17-.38-.33-.74-.5-1.09l-.23-.5a7.69,7.69,0,0,1,.52.73c.52.86,1,1.75,1.53,2.6.41.69.81,1.38,1.22,2.06.77,1.3,1.2,1.63,1.76,1.37l6.63-3.1c2.35-1.11,4.69-2.21,7-3.3.47-.22,1-.42,1.42-.63s1.08-.45,1.61-.7l2-1,1.33-.67,1.58-.73,2.21-1,2.82-1.32.95-.4.94-.4,1.22-.56c.41-.2.82-.4,1.23-.58a6.37,6.37,0,0,1,.61-.23,8.16,8.16,0,0,0,.81-.34c.31-.15.6-.33.9-.51a10.9,10.9,0,0,1,1.06-.58q3.61-1.71,7.23-3.39l3.62-1.69,28.4-13.3L207,69.31a1.32,1.32,0,0,0,2.52-.57,1.23,1.23,0,0,0-.11-.53l-1.94-4.31,13.25-6.21a.78.78,0,0,1,.27-.09l3.8,8a1.32,1.32,0,1,0,2.39-1.13ZM133,98.77l-.4.19-5-10.76.8-.37,5,10.76Zm2.41-1.13-.39.19-2.52-5.38.79-.37,2.52,5.38Zm2.87-1.34-.4.19-5-10.76.79-.37,5,10.75Zm2.48-1.16-.39.18L137.87,90l.79-.38L141.18,95Zm2.8-1.31-.39.18-5-10.76.8-.37,5,10.76Zm2.55-1.2-.4.19-2.51-5.38.79-.37,2.52,5.38Zm2.74-1.28-.4.19-5-10.76.79-.37,5,10.76Zm2.61-1.22-.4.19-2.51-5.38.79-.37L151.88,90Zm2.67-1.25-.39.19-5-10.76.79-.37,5,10.76Zm2.68-1.25-.4.18-2.51-5.38.79-.37,2.52,5.38Zm2.61-1.22-.4.18-5-10.75.8-.38,5,10.76Zm2.74-1.29-.4.19-2.51-5.38.79-.37,2.52,5.38Zm2.54-1.19-.4.19-5-10.76.79-.37,5,10.76Zm2.81-1.31-.4.19-2.52-5.38.8-.37,2.51,5.37ZM170,81.46l-.39.19-5-10.76.8-.37,5,10.76Zm2.88-1.34-.4.18L170,74.92l.8-.37,2.51,5.38ZM175.29,79l-.4.18-5-10.75.79-.38,5,10.76Zm2.94-1.38-.4.19-2.52-5.38.8-.37,2.51,5.38Zm2.34-1.1-.39.19-5-10.76.79-.37,5,10.76Zm3-1.4-.4.18-2.52-5.37.8-.38L184,74.92ZM185.86,74l-.4.19-5-10.76.79-.37,5,10.76Zm3.07-1.43-.4.18L186,67.41l.79-.37,2.52,5.38Zm2.21-1-.4.18-5-10.75.79-.37,5,10.75Zm3.13-1.47-.39.19-2.52-5.38.79-.37,2.52,5.38Zm2.16-1-.4.18-5-10.76.8-.37,5,10.76Z"/><polygon class="cls-3" points="217.27 179.67 177.58 179.67 177.79 206.97 217.48 206.97 217.27 179.67"/><path class="cls-4" d="M212,184.63h-29a3.08,3.08,0,0,0-3.25,2.87v5.15a3.07,3.07,0,0,0,3.25,2.86h29a3.08,3.08,0,0,0,3.26-2.86V187.5A3.09,3.09,0,0,0,212,184.63Z"/><path class="cls-4" d="M208.66,199H186.4c-.79,0-1.42.85-1.42,1.9h0a1.73,1.73,0,0,0,1.42,1.9h22.26c.78,0,1.42-.85,1.42-1.9S209.44,199,208.66,199Z"/><path class="cls-5" d="M175.83,168.61a6.31,6.31,0,0,0-.36,1.61,25.24,25.24,0,0,0,0,3.37c0,.57,0,1.14,0,1.7l.17,24.34c.05,7.39.08,10.71.17,18.11v2.13a45.79,45.79,0,0,0,.23,6,6.39,6.39,0,0,0,3.58,4.74l.23.11c1.44.7,1.45.7,15.83.6l2.15,0c14.74-.1,15.67-.12,16.53-.35a6.64,6.64,0,0,0,5.26-6.13c0-1.33,0-2.66,0-4,0-.67,0-1.33,0-2,0-2.78,0-4.54-.07-6.3s0-3.53-.07-6.31L219.2,173a19.44,19.44,0,0,0-.37-4.35Z"/><path class="cls-5" d="M182.43,148.11a1.18,1.18,0,0,0-.32.79v4.37a1.15,1.15,0,0,0,1.15,1.14h1.66v.06h24.51v-.06H212a1.14,1.14,0,0,0,1.14-1.14V148.9a1.17,1.17,0,0,0-.31-.79l-.08-.08H182.51Z"/><path class="cls-5" d="M184.92,161l-.14.15a5.08,5.08,0,0,1-1,.83c-.39.24-1.46.8-2.4,1.24a11.51,11.51,0,0,0-5,4.16h42a6.59,6.59,0,0,0-1.3-1.92,11.84,11.84,0,0,0-4-2.49,11.15,11.15,0,0,1-3.53-2.12l-.14-.14v0H184.92Z"/><path class="cls-6" d="M220.62,220.79c0-.66,0-1.32,0-2,0-2.78,0-4.54-.07-6.31s0-3.52-.07-6.3L220.2,173c0-3,0-5.78-2.38-8.18a12.75,12.75,0,0,0-4.31-2.7,12.21,12.21,0,0,1-3.08-1.76v-4.91H212a2.14,2.14,0,0,0,2.14-2.14V148.9a2.25,2.25,0,0,0-.09-.64,2.88,2.88,0,0,0,2.66-2.87V143.9a2.88,2.88,0,0,0-2.87-2.87H181.42a2.88,2.88,0,0,0-2.87,2.87v.7a3.25,3.25,0,0,1,3.23-3.07h31.5a3.25,3.25,0,0,1,0,6.5h-.49l.08.08a1.17,1.17,0,0,1,.31.79v4.37a1.14,1.14,0,0,1-1.14,1.14h-2.61v.06h.19v6.24h-.19v0l.14.14A11.15,11.15,0,0,0,213.1,163a11.84,11.84,0,0,1,4,2.49,6.59,6.59,0,0,1,1.3,1.92h.95v1.21h-.52a19.44,19.44,0,0,1,.37,4.35l.26,33.25c0,2.78,0,4.54.07,6.31s.05,3.52.07,6.3c0,.66,0,1.32,0,2,0,1.33,0,2.66,0,4a6.64,6.64,0,0,1-5.26,6.13c-.86.23-1.79.25-16.53.35l-2.15,0c-14.38.1-14.39.1-15.83-.6l-.23-.11a6.39,6.39,0,0,1-3.58-4.74,45.79,45.79,0,0,1-.23-6v-2.13c-.09-7.4-.12-10.72-.17-18.11l-.17-24.34c0-.56,0-1.13,0-1.7a25.24,25.24,0,0,1,0-3.37,6.31,6.31,0,0,1,.36-1.61V167.4h.57a11.51,11.51,0,0,1,5-4.16c.94-.44,2-1,2.4-1.24a5.08,5.08,0,0,0,1-.83l.14-.15v-.31h-.77v-6.24h.77v-.06h-1.66a1.15,1.15,0,0,1-1.15-1.14V148.9a1.18,1.18,0,0,1,.32-.79l.08-.08h-.73a3.25,3.25,0,0,1-3.23-3.07v.43a2.88,2.88,0,0,0,2.66,2.87,2.25,2.25,0,0,0-.1.64v4.37a2.14,2.14,0,0,0,2.15,2.14h.66v5.21a4,4,0,0,1-.69.53c-.32.2-1.31.72-2.29,1.19-2.25,1.06-6.07,3.48-6.47,7.79a27.25,27.25,0,0,0,0,3.5c0,.56,0,1.12,0,1.66l.17,24.34c.05,7.4.08,10.72.17,18.12v2.12a48.08,48.08,0,0,0,.23,6.11,7.46,7.46,0,0,0,4.15,5.51l.22.11c1.22.59,1.54.75,7.4.75,2.13,0,5,0,8.88,0l2.15,0c15-.1,15.78-.12,16.78-.38a7.61,7.61,0,0,0,6-7.08C220.67,223.48,220.65,222.13,220.62,220.79Z"/><path class="cls-7" d="M181.78,148h31.5a3.25,3.25,0,0,0,0-6.5h-31.5a3.25,3.25,0,0,0-3.23,3.07c0,.06,0,.12,0,.18s0,.12,0,.18A3.25,3.25,0,0,0,181.78,148Z"/><polygon class="cls-7" points="184.15 154.47 184.15 160.71 184.91 160.71 209.43 160.71 209.62 160.71 209.62 154.47 209.43 154.47 184.91 154.47 184.15 154.47"/><polygon class="cls-7" points="175.83 167.4 175.83 168.61 175.83 168.61 218.82 168.61 219.35 168.61 219.35 167.4 218.41 167.4 176.4 167.4 175.83 167.4"/></svg>